{
    "programs": [
        {
            "program_id": 13222,
            "program_num": 13222,
            "nb_streams": 0,
            "pmt_pid": 222,
            "pcr_pid": 0,
            "streams": [

            ]
        },
        {
            "program_id": 13223,
            "program_num": 13223,
            "nb_streams": 0,
            "pmt_pid": 223,
            "pcr_pid": 0,
            "streams": [

            ]
        },
        {
            "program_id": 13224,
            "program_num": 13224,
            "nb_streams": 0,
            "pmt_pid": 224,
            "pcr_pid": 0,
            "streams": [

            ]
        },
        {
            "program_id": 13226,
            "program_num": 13226,
            "nb_streams": 0,
            "pmt_pid": 226,
            "pcr_pid": 0,
            "streams": [

            ]
        },
        {
            "program_id": 13227,
            "program_num": 13227,
            "nb_streams": 0,
            "pmt_pid": 227,
            "pcr_pid": 0,
            "streams": [

            ]
        },
        {
            "program_id": 13228,
            "program_num": 13228,
            "nb_streams": 5,
            "pmt_pid": 228,
            "pcr_pid": 2280,
            "streams": [
                {
                    "index": 1,
                    "codec_name": "h264",
                    "codec_long_name": "H.264 / AVC / MPEG-4 AVC / MPEG-4 part 10",
                    "profile": "High",
                    "codec_type": "video",
                    "codec_tag_string": "[27][0][0][0]",
                    "codec_tag": "0x001b",
                    "mime_codec_string": "avc1.640028",
                    "width": 1920,
                    "height": 1080,
                    "coded_width": 1920,
                    "coded_height": 1080,
                    "has_b_frames": 2,
                    "sample_aspect_ratio": "1:1",
                    "display_aspect_ratio": "16:9",
                    "pix_fmt": "yuv420p",
                    "level": 40,
                    "chroma_location": "left",
                    "field_order": "tt",
                    "is_avc": "false",
                    "nal_length_size": "0",
                    "ts_id": "1003",
                    "ts_packetsize": "188",
                    "id": "0x8e8",
                    "r_frame_rate": "25/1",
                    "avg_frame_rate": "25/1",
                    "time_base": "1/90000",
                    "start_pts": 2766438100,
                    "start_time": "30738.201111",
                    "duration_ts": 756000,
                    "duration": "8.400000",
                    "bits_per_raw_sample": "8",
                    "extradata_size": 143,
                    "disposition": {
                        "default": 0,
                        "dub": 0,
                        "original": 0,
                        "comment": 0,
                        "lyrics": 0,
                        "karaoke": 0,
                        "forced": 0,
                        "hearing_impaired": 0,
                        "visual_impaired": 0,
                        "clean_effects": 0,
                        "attached_pic": 0,
                        "timed_thumbnails": 0,
                        "non_diegetic": 0,
                        "captions": 0,
                        "descriptions": 0,
                        "metadata": 0,
                        "dependent": 0,
                        "still_image": 0,
                        "multilayer": 0
                    }
                },
                {
                    "index": 2,
                    "codec_name": "mp2",
                    "codec_long_name": "MP2 (MPEG audio layer 2)",
                    "codec_type": "audio",
                    "codec_tag_string": "[3][0][0][0]",
                    "codec_tag": "0x0003",
                    "mime_codec_string": "mp4a.40.33",
                    "sample_fmt": "fltp",
                    "sample_rate": "48000",
                    "channels": 2,
                    "channel_layout": "stereo",
                    "bits_per_sample": 0,
                    "initial_padding": 0,
                    "ts_id": "1003",
                    "ts_packetsize": "188",
                    "id": "0x8e9",
                    "r_frame_rate": "0/0",
                    "avg_frame_rate": "0/0",
                    "time_base": "1/90000",
                    "start_pts": 2766342927,
                    "start_time": "30737.143633",
                    "duration_ts": 745200,
                    "duration": "8.280000",
                    "bit_rate": "160000",
                    "disposition": {
                        "default": 0,
                        "dub": 0,
                        "original": 0,
                        "comment": 0,
                        "lyrics": 0,
                        "karaoke": 0,
                        "forced": 0,
                        "hearing_impaired": 0,
                        "visual_impaired": 0,
                        "clean_effects": 1,
                        "attached_pic": 0,
                        "timed_thumbnails": 0,
                        "non_diegetic": 0,
                        "captions": 0,
                        "descriptions": 0,
                        "metadata": 0,
                        "dependent": 0,
                        "still_image": 0,
                        "multilayer": 0
                    },
                    "tags": {
                        "language": "ger"
                    }
                },
                {
                    "index": 3,
                    "codec_name": "dvb_teletext",
                    "codec_long_name": "DVB teletext",
                    "codec_type": "subtitle",
                    "codec_tag_string": "[6][0][0][0]",
                    "codec_tag": "0x0006",
                    "ts_id": "1003",
                    "ts_packetsize": "188",
                    "id": "0x8ed",
                    "r_frame_rate": "0/0",
                    "avg_frame_rate": "0/0",
                    "time_base": "1/90000",
                    "start_pts": 2766312100,
                    "start_time": "30736.801111",
                    "duration_ts": 784800,
                    "duration": "8.720000",
                    "extradata_size": 2,
                    "disposition": {
                        "default": 0,
                        "dub": 0,
                        "original": 0,
                        "comment": 0,
                        "lyrics": 0,
                        "karaoke": 0,
                        "forced": 0,
                        "hearing_impaired": 0,
                        "visual_impaired": 0,
                        "clean_effects": 0,
                        "attached_pic": 0,
                        "timed_thumbnails": 0,
                        "non_diegetic": 0,
                        "captions": 0,
                        "descriptions": 0,
                        "metadata": 0,
                        "dependent": 0,
                        "still_image": 0,
                        "multilayer": 0
                    },
                    "tags": {
                        "language": "ger"
                    }
                },
                {
                    "index": 4,
                    "codec_type": "data",
                    "codec_tag_string": "[0][0][0][0]",
                    "codec_tag": "0x0000",
                    "ts_id": "1003",
                    "ts_packetsize": "188",
                    "id": "0x1f04",
                    "r_frame_rate": "0/0",
                    "avg_frame_rate": "0/0",
                    "time_base": "1/90000",
                    "start_pts": 2766312100,
                    "start_time": "30736.801111",
                    "duration_ts": 882000,
                    "duration": "9.800000",
                    "disposition": {
                        "default": 0,
                        "dub": 0,
                        "original": 0,
                        "comment": 0,
                        "lyrics": 0,
                        "karaoke": 0,
                        "forced": 0,
                        "hearing_impaired": 0,
                        "visual_impaired": 0,
                        "clean_effects": 0,
                        "attached_pic": 0,
                        "timed_thumbnails": 0,
                        "non_diegetic": 0,
                        "captions": 0,
                        "descriptions": 0,
                        "metadata": 0,
                        "dependent": 0,
                        "still_image": 0,
                        "multilayer": 0
                    }
                },
                {
                    "index": 5,
                    "codec_tag_string": "[5][0][0][0]",
                    "codec_tag": "0x0005",
                    "ts_id": "1003",
                    "ts_packetsize": "188",
                    "id": "0x1f04",
                    "r_frame_rate": "0/0",
                    "avg_frame_rate": "0/0",
                    "time_base": "1/90000",
                    "start_pts": 2766312100,
                    "start_time": "30736.801111",
                    "duration_ts": 882000,
                    "duration": "9.800000",
                    "disposition": {
                        "default": 0,
                        "dub": 0,
                        "original": 0,
                        "comment": 0,
                        "lyrics": 0,
                        "karaoke": 0,
                        "forced": 0,
                        "hearing_impaired": 0,
                        "visual_impaired": 0,
                        "clean_effects": 0,
                        "attached_pic": 0,
                        "timed_thumbnails": 0,
                        "non_diegetic": 0,
                        "captions": 0,
                        "descriptions": 0,
                        "metadata": 0,
                        "dependent": 0,
                        "still_image": 0,
                        "multilayer": 0
                    }
                }
            ]
        },
        {
            "program_id": 13229,
            "program_num": 13229,
            "nb_streams": 0,
            "pmt_pid": 229,
            "pcr_pid": 0,
            "streams": [

            ]
        },
        {
            "program_id": 13231,
            "program_num": 13231,
            "nb_streams": 0,
            "pmt_pid": 231,
            "pcr_pid": 0,
            "streams": [

            ]
        },
        {
            "program_id": 13232,
            "program_num": 13232,
            "nb_streams": 0,
            "pmt_pid": 232,
            "pcr_pid": 0,
            "streams": [

            ]
        },
        {
            "program_id": 13233,
            "program_num": 13233,
            "nb_streams": 0,
            "pmt_pid": 233,
            "pcr_pid": 0,
            "streams": [

            ]
        },
        {
            "program_id": 13236,
            "program_num": 13236,
            "nb_streams": 0,
            "pmt_pid": 236,
            "pcr_pid": 0,
            "streams": [

            ]
        }
    ],
    "streams": [
        {
            "index": 0,
            "codec_name": "epg",
            "codec_long_name": "Electronic Program Guide",
            "codec_type": "data",
            "codec_tag_string": "[0][0][0][0]",
            "codec_tag": "0x0000",
            "ts_id": "1003",
            "ts_packetsize": "188",
            "id": "0x12",
            "r_frame_rate": "0/0",
            "avg_frame_rate": "0/0",
            "time_base": "1/90000",
            "start_pts": 2766312100,
            "start_time": "30736.801111",
            "duration_ts": 882000,
            "duration": "9.800000",
            "disposition": {
                "default": 0,
                "dub": 0,
                "original": 0,
                "comment": 0,
                "lyrics": 0,
                "karaoke": 0,
                "forced": 0,
                "hearing_impaired": 0,
                "visual_impaired": 0,
                "clean_effects": 0,
                "attached_pic": 0,
                "timed_thumbnails": 0,
                "non_diegetic": 0,
                "captions": 0,
                "descriptions": 0,
                "metadata": 0,
                "dependent": 0,
                "still_image": 0,
                "multilayer": 0
            }
        },
        {
            "index": 1,
            "codec_name": "h264",
            "codec_long_name": "H.264 / AVC / MPEG-4 AVC / MPEG-4 part 10",
            "profile": "High",
            "codec_type": "video",
            "codec_tag_string": "[27][0][0][0]",
            "codec_tag": "0x001b",
            "mime_codec_string": "avc1.640028",
            "width": 1920,
            "height": 1080,
            "coded_width": 1920,
            "coded_height": 1080,
            "has_b_frames": 2,
            "sample_aspect_ratio": "1:1",
            "display_aspect_ratio": "16:9",
            "pix_fmt": "yuv420p",
            "level": 40,
            "chroma_location": "left",
            "field_order": "tt",
            "is_avc": "false",
            "nal_length_size": "0",
            "ts_id": "1003",
            "ts_packetsize": "188",
            "id": "0x8e8",
            "r_frame_rate": "25/1",
            "avg_frame_rate": "25/1",
            "time_base": "1/90000",
            "start_pts": 2766438100,
            "start_time": "30738.201111",
            "duration_ts": 756000,
            "duration": "8.400000",
            "bits_per_raw_sample": "8",
            "extradata_size": 143,
            "disposition": {
                "default": 0,
                "dub": 0,
                "original": 0,
                "comment": 0,
                "lyrics": 0,
                "karaoke": 0,
                "forced": 0,
                "hearing_impaired": 0,
                "visual_impaired": 0,
                "clean_effects": 0,
                "attached_pic": 0,
                "timed_thumbnails": 0,
                "non_diegetic": 0,
                "captions": 0,
                "descriptions": 0,
                "metadata": 0,
                "dependent": 0,
                "still_image": 0,
                "multilayer": 0
            }
        },
        {
            "index": 2,
            "codec_name": "mp2",
            "codec_long_name": "MP2 (MPEG audio layer 2)",
            "codec_type": "audio",
            "codec_tag_string": "[3][0][0][0]",
            "codec_tag": "0x0003",
            "mime_codec_string": "mp4a.40.33",
            "sample_fmt": "fltp",
            "sample_rate": "48000",
            "channels": 2,
            "channel_layout": "stereo",
            "bits_per_sample": 0,
            "initial_padding": 0,
            "ts_id": "1003",
            "ts_packetsize": "188",
            "id": "0x8e9",
            "r_frame_rate": "0/0",
            "avg_frame_rate": "0/0",
            "time_base": "1/90000",
            "start_pts": 2766342927,
            "start_time": "30737.143633",
            "duration_ts": 745200,
            "duration": "8.280000",
            "bit_rate": "160000",
            "disposition": {
                "default": 0,
                "dub": 0,
                "original": 0,
                "comment": 0,
                "lyrics": 0,
                "karaoke": 0,
                "forced": 0,
                "hearing_impaired": 0,
                "visual_impaired": 0,
                "clean_effects": 1,
                "attached_pic": 0,
                "timed_thumbnails": 0,
                "non_diegetic": 0,
                "captions": 0,
                "descriptions": 0,
                "metadata": 0,
                "dependent": 0,
                "still_image": 0,
                "multilayer": 0
            },
            "tags": {
                "language": "ger"
            }
        },
        {
            "index": 3,
            "codec_name": "dvb_teletext",
            "codec_long_name": "DVB teletext",
            "codec_type": "subtitle",
            "codec_tag_string": "[6][0][0][0]",
            "codec_tag": "0x0006",
            "ts_id": "1003",
            "ts_packetsize": "188",
            "id": "0x8ed",
            "r_frame_rate": "0/0",
            "avg_frame_rate": "0/0",
            "time_base": "1/90000",
            "start_pts": 2766312100,
            "start_time": "30736.801111",
            "duration_ts": 784800,
            "duration": "8.720000",
            "extradata_size": 2,
            "disposition": {
                "default": 0,
                "dub": 0,
                "original": 0,
                "comment": 0,
                "lyrics": 0,
                "karaoke": 0,
                "forced": 0,
                "hearing_impaired": 0,
                "visual_impaired": 0,
                "clean_effects": 0,
                "attached_pic": 0,
                "timed_thumbnails": 0,
                "non_diegetic": 0,
                "captions": 0,
                "descriptions": 0,
                "metadata": 0,
                "dependent": 0,
                "still_image": 0,
                "multilayer": 0
            },
            "tags": {
                "language": "ger"
            }
        },
        {
            "index": 4,
            "codec_type": "data",
            "codec_tag_string": "[0][0][0][0]",
            "codec_tag": "0x0000",
            "ts_id": "1003",
            "ts_packetsize": "188",
            "id": "0x1f04",
            "r_frame_rate": "0/0",
            "avg_frame_rate": "0/0",
            "time_base": "1/90000",
            "start_pts": 2766312100,
            "start_time": "30736.801111",
            "duration_ts": 882000,
            "duration": "9.800000",
            "disposition": {
                "default": 0,
                "dub": 0,
                "original": 0,
                "comment": 0,
                "lyrics": 0,
                "karaoke": 0,
                "forced": 0,
                "hearing_impaired": 0,
                "visual_impaired": 0,
                "clean_effects": 0,
                "attached_pic": 0,
                "timed_thumbnails": 0,
                "non_diegetic": 0,
                "captions": 0,
                "descriptions": 0,
                "metadata": 0,
                "dependent": 0,
                "still_image": 0,
                "multilayer": 0
            }
        },
        {
            "index": 5,
            "codec_tag_string": "[5][0][0][0]",
            "codec_tag": "0x0005",
            "ts_id": "1003",
            "ts_packetsize": "188",
            "id": "0x1f04",
            "r_frame_rate": "0/0",
            "avg_frame_rate": "0/0",
            "time_base": "1/90000",
            "start_pts": 2766312100,
            "start_time": "30736.801111",
            "duration_ts": 882000,
            "duration": "9.800000",
            "disposition": {
                "default": 0,
                "dub": 0,
                "original": 0,
                "comment": 0,
                "lyrics": 0,
                "karaoke": 0,
                "forced": 0,
                "hearing_impaired": 0,
                "visual_impaired": 0,
                "clean_effects": 0,
                "attached_pic": 0,
                "timed_thumbnails": 0,
                "non_diegetic": 0,
                "captions": 0,
                "descriptions": 0,
                "metadata": 0,
                "dependent": 0,
                "still_image": 0,
                "multilayer": 0
            }
        }
    ],
    "format": {
        "filename": "./testdata/regression-corpus/control-smoke/20260714T192001Z/input.ts",
        "nb_streams": 6,
        "nb_programs": 11,
        "nb_stream_groups": 0,
        "format_name": "mpegts",
        "format_long_name": "MPEG-TS (MPEG-2 Transport Stream)",
        "start_time": "30736.801111",
        "duration": "9.800000",
        "size": "7315456",
        "bit_rate": "5971800",
        "probe_score": 50
    }
}
